<svg width="48" height="48" viewBox="0 0 48 48" fill="none" xmlns="http://www.w3.org/2000/svg">
<path d="M13.6836 14.3422L10.0449 14.6234C9.0324 14.7016 8.13063 15.2323 7.57069 16.0792L3.37424 22.4261C2.94957 23.0684 2.88206 23.8722 3.19353 24.5764C3.50508 25.2805 4.14533 25.7713 4.90617 25.8891L8.23785 26.4051C9.01722 22.2691 10.8829 18.1433 13.6836 14.3422ZM21.5949 39.7622L22.111 43.0938C22.2289 43.8547 22.7196 44.4949 23.4236 44.8064C23.7106 44.9338 24.0211 44.9998 24.3352 45C24.7759 44.9997 25.2068 44.8695 25.574 44.6257L31.921 40.4293C32.768 39.8693 33.2987 38.9675 33.3767 37.9551L33.6579 34.3164C29.8567 37.1172 25.731 38.9829 21.5949 39.7622ZM20.3419 37.4529C20.4576 37.4529 20.5739 37.4434 20.69 37.424C22.4228 37.1343 24.0929 36.6462 25.6861 36.0074L11.9927 22.314C11.3539 23.9071 10.8658 25.5772 10.5761 27.3101C10.4619 27.9932 10.691 28.6891 11.1806 29.1788L18.8213 36.8195C19.2278 37.2259 19.7765 37.4529 20.3419 37.4529ZM41.6511 21.6212C45.002 15.1429 45.1261 8.29698 44.951 5.08629C44.891 3.98618 44.0139 3.10911 42.9137 3.04914C42.3007 3.01608 41.6869 2.99969 41.073 3C37.4829 3 31.8022 3.54379 26.3788 6.34899C22.0687 8.57834 16.4171 13.4871 13.0827 19.9382C13.122 19.969 13.1605 20.0016 13.1968 20.0379L27.9623 34.8034C27.9986 34.8397 28.0311 34.8781 28.0619 34.9174C34.513 31.583 39.4218 25.9313 41.6511 21.6212ZM27.4204 11.879C29.8191 9.48035 33.7222 9.48011 36.121 11.879C37.2831 13.041 37.923 14.586 37.923 16.2294C37.923 17.8727 37.2831 19.4177 36.121 20.5797C34.9218 21.7789 33.346 22.3786 31.7707 22.3788C30.195 22.3789 28.6199 21.7792 27.4204 20.5797C26.2584 19.4177 25.6184 17.8727 25.6184 16.2294C25.6184 14.586 26.2584 13.041 27.4204 11.879Z" fill="#FFAD00"/>
<path d="M29.1607 18.8393C30.6 20.2786 32.9419 20.2787 34.3812 18.8393C35.0784 18.1421 35.4623 17.2151 35.4623 16.2291C35.4623 15.2431 35.0784 14.3162 34.3812 13.619C33.6616 12.8993 32.7163 12.5396 31.771 12.5396C30.8257 12.5396 29.8804 12.8993 29.1608 13.619C28.4636 14.3162 28.0796 15.2431 28.0796 16.2291C28.0796 17.2151 28.4636 18.1422 29.1607 18.8393ZM4.25571 37.6118C4.57063 37.6118 4.88554 37.4917 5.12573 37.2513L9.14302 33.234C9.62356 32.7535 9.62356 31.9744 9.14302 31.4939C8.66257 31.0134 7.88344 31.0134 7.4029 31.4939L3.38561 35.5112C2.90508 35.9917 2.90508 36.7708 3.38561 37.2513C3.49975 37.3658 3.63537 37.4565 3.78469 37.5184C3.93401 37.5802 4.09409 37.612 4.25571 37.6118ZM12.8246 35.1755C12.3442 34.695 11.5651 34.695 11.0845 35.1755L3.36092 42.8991C2.88038 43.3797 2.88038 44.1587 3.36092 44.6393C3.60119 44.8795 3.91611 44.9996 4.23102 44.9996C4.54594 44.9996 4.86085 44.8795 5.10104 44.6392L12.8246 36.9156C13.3052 36.4351 13.3052 35.6561 12.8246 35.1755ZM14.7661 38.8571L10.7489 42.8744C10.2683 43.355 10.2683 44.134 10.7489 44.6146C10.9891 44.8548 11.304 44.975 11.6189 44.975C11.9337 44.975 12.2487 44.8549 12.4889 44.6146L16.5062 40.5973C16.9867 40.1167 16.9867 39.3377 16.5062 38.8571C16.0257 38.3766 15.2466 38.3766 14.7661 38.8571Z" fill="#FFAD00"/>
</svg>
