<svg width="48" height="48" viewBox="0 0 48 48" fill="none" xmlns="http://www.w3.org/2000/svg">
<path d="M9.18378 11.1991C10.4263 11.1991 11.4335 10.1687 11.4335 8.89766C11.4335 7.6266 10.4263 6.59619 9.18378 6.59619C7.94129 6.59619 6.93405 7.6266 6.93405 8.89766C6.93405 10.1687 7.94129 11.1991 9.18378 11.1991Z" fill="#FFAD00"/>
<path d="M35.3723 14.2903C35.2413 14.2083 35.1175 14.119 34.9937 14.0221C34.8918 13.9477 34.7971 13.8657 34.7025 13.7838C34.586 13.687 34.4768 13.5752 34.3676 13.471C34.2802 13.3816 34.1928 13.2922 34.1128 13.2028C34.0108 13.0837 33.9162 12.9645 33.8215 12.8453C33.7487 12.7485 33.6686 12.6517 33.6031 12.5474C33.5157 12.4133 33.4357 12.2793 33.3556 12.1452C33.2973 12.0409 33.2318 11.9441 33.1808 11.8324C33.108 11.6834 33.0425 11.527 32.977 11.3781C32.9333 11.2738 32.8896 11.177 32.8459 11.0652C32.7877 10.8865 32.7367 10.7077 32.693 10.529C32.6712 10.4396 32.6421 10.3502 32.6202 10.2534C32.5601 9.97356 32.5188 9.68988 32.4964 9.4043H15.547C15.5252 9.69477 15.4815 9.9778 15.4233 10.2534C15.4014 10.3428 15.3723 10.4321 15.3505 10.529C15.3068 10.7077 15.2558 10.8939 15.1976 11.0652C15.1612 11.1695 15.1102 11.2738 15.0738 11.3781C15.0083 11.5345 14.95 11.6834 14.8699 11.8324C14.819 11.9367 14.7535 12.0409 14.6952 12.1452C14.6151 12.2793 14.535 12.4208 14.4477 12.5549C14.3821 12.6517 14.3021 12.7485 14.2292 12.8453C14.1346 12.972 14.0399 13.0911 13.938 13.2103C13.8579 13.2997 13.7706 13.389 13.6832 13.4784C13.574 13.5901 13.4648 13.6944 13.341 13.7987C13.2464 13.8806 13.1517 13.9551 13.0498 14.0296C12.926 14.1264 12.795 14.2158 12.6639 14.2977C12.562 14.3648 12.4528 14.4318 12.3508 14.4914L12.1761 14.6031C12.4195 15.0661 12.7808 15.4532 13.2217 15.7233C13.6626 15.9934 14.1667 16.1365 14.6806 16.1374H33.3701C34.4258 16.1374 35.3869 15.5341 35.8747 14.6031C35.8164 14.5733 35.7582 14.5286 35.6999 14.4914C35.5835 14.4243 35.4815 14.3573 35.3723 14.2903ZM11.4917 41.826H10.3851C9.48953 41.826 8.75418 42.5708 8.75418 43.4944V43.8296C8.75418 44.7457 9.48225 45.4979 10.3851 45.4979H37.6512C38.5467 45.4979 39.282 44.7531 39.282 43.8296V43.4869C39.282 42.5708 38.554 41.8186 37.6512 41.8186H11.4917V41.826ZM15.4742 17.128V36.1431H32.5765V17.128H15.4742ZM20.2067 32.8882C20.2067 33.0226 20.1545 33.1514 20.0617 33.2464C19.9688 33.3414 19.8429 33.3947 19.7116 33.3947C19.5803 33.3947 19.4544 33.3414 19.3615 33.2464C19.2687 33.1514 19.2165 33.0226 19.2165 32.8882V20.6733C19.2165 20.539 19.2687 20.4102 19.3615 20.3152C19.4544 20.2202 19.5803 20.1668 19.7116 20.1668C19.8429 20.1668 19.9688 20.2202 20.0617 20.3152C20.1545 20.4102 20.2067 20.539 20.2067 20.6733V32.8882ZM24.5168 32.8882C24.5168 33.0226 24.4647 33.1514 24.3718 33.2464C24.279 33.3414 24.1531 33.3947 24.0217 33.3947C23.8904 33.3947 23.7645 33.3414 23.6717 33.2464C23.5788 33.1514 23.5267 33.0226 23.5267 32.8882V20.6733C23.5267 20.539 23.5788 20.4102 23.6717 20.3152C23.7645 20.2202 23.8904 20.1668 24.0217 20.1668C24.1531 20.1668 24.279 20.2202 24.3718 20.3152C24.4647 20.4102 24.5168 20.539 24.5168 20.6733V32.8882ZM28.8197 32.8882C28.8197 33.0226 28.7675 33.1514 28.6747 33.2464C28.5819 33.3414 28.4559 33.3947 28.3246 33.3947C28.1933 33.3947 28.0674 33.3414 27.9745 33.2464C27.8817 33.1514 27.8295 33.0226 27.8295 32.8882V20.6733C27.8295 20.539 27.8817 20.4102 27.9745 20.3152C28.0674 20.2202 28.1933 20.1668 28.3246 20.1668C28.4559 20.1668 28.5819 20.2202 28.6747 20.3152C28.7675 20.4102 28.8197 20.539 28.8197 20.6733V32.8882Z" fill="#FFAD00"/>
<path d="M38.8088 11.1991C40.0513 11.1991 41.0586 10.1687 41.0586 8.89766C41.0586 7.6266 40.0513 6.59619 38.8088 6.59619C37.5663 6.59619 36.5591 7.6266 36.5591 8.89766C36.5591 10.1687 37.5663 11.1991 38.8088 11.1991Z" fill="#FFAD00"/>
<path d="M14.9792 37.1487H14.4404C13.0862 37.1487 11.9869 38.2734 11.9869 39.6587V40.8132H36.064V39.6587C36.064 38.2734 34.9646 37.1487 33.6104 37.1487H33.0717H14.9792ZM38.7433 3.49805H9.30029C6.3953 3.49805 4.02908 5.91869 4.02908 8.89794C4.02908 11.8697 6.3953 14.2904 9.30029 14.2904C10.0138 14.2904 10.6982 14.1489 11.3389 13.8733C11.4626 13.8212 11.5791 13.7467 11.7029 13.6871C11.8194 13.6275 11.9359 13.5754 12.0451 13.5083C12.8188 13.0271 13.4584 12.3501 13.9021 11.5426C14.3459 10.7351 14.5789 9.8243 14.5788 8.89794C14.5788 8.62236 14.7972 8.39147 15.0739 8.39147H32.977C33.2464 8.39147 33.4721 8.61491 33.4721 8.89794C33.4721 11.0802 34.7462 13.0317 36.712 13.8733C37.3527 14.1489 38.0371 14.2904 38.7579 14.2904C41.6629 14.2904 44.0291 11.8697 44.0291 8.89794C44.0218 5.92614 41.6556 3.49805 38.7433 3.49805ZM9.1838 12.2049C7.40003 12.2049 5.95118 10.7227 5.95118 8.89794C5.95118 7.07315 7.40003 5.59097 9.1838 5.59097C10.9676 5.59097 12.4164 7.07315 12.4164 8.89794C12.4164 10.7227 10.9603 12.2049 9.1838 12.2049ZM38.8088 12.2049C37.0251 12.2049 35.5762 10.7227 35.5762 8.89794C35.5762 7.07315 37.0251 5.59097 38.8088 5.59097C40.5926 5.59097 42.0415 7.07315 42.0415 8.89794C42.0415 10.7227 40.5926 12.2049 38.8088 12.2049Z" fill="#FFAD00"/>
</svg>
