<svg width="48" height="48" viewBox="0 0 48 48" fill="none" xmlns="http://www.w3.org/2000/svg">
<path d="M25.7107 6.39265C26.1859 5.76304 26.1095 4.42761 26.0419 3.24959C26.0393 3.19881 26.0364 3.14915 26.0336 3.09872C25.3674 3.03514 24.693 3 24.0105 3C21.3951 3 18.8926 3.48157 16.583 4.35458C18.2306 5.14597 20.781 6.50812 23.6158 8.52075C24.583 7.6888 25.3125 6.92078 25.7107 6.39265ZM36.3563 18.3755C35.3208 18.4924 34.4474 18.6623 33.7005 18.9005C37.271 25.1315 38.6632 33.0035 39.0039 38.7065C42.5412 35.1041 44.7876 30.2342 45 24.8399C42.5626 21.8455 39.3338 18.0379 36.3563 18.3755ZM15.1299 12.9971C17.6386 12.4753 19.9956 11.2132 21.8749 9.88109C17.9544 7.18223 14.6844 5.7816 14.034 5.51499C9.96653 7.71269 6.7117 11.2143 4.81815 15.457C7.27938 14.4768 9.94495 13.9782 12.5631 13.4923C13.41 13.3351 14.2856 13.1726 15.1299 12.9971Z" fill="#FFAD00"/>
<path d="M29.6521 13.6077C29.8777 13.8341 30.1007 14.0631 30.3211 14.2945C31.1396 15.1533 31.8822 16.0925 32.5632 17.0863C33.5549 16.712 34.7224 16.4466 36.12 16.2887C39.4129 15.9164 42.3409 18.5236 44.854 21.3939C44.3152 17.0426 42.448 13.1044 39.6659 9.99854C38.1473 10.1815 36.4543 10.4914 34.7287 11.006C33.5968 11.3439 31.7941 12.262 29.6521 13.6077ZM26.8876 24.4527C27.7493 21.5354 28.7475 19.4323 30.6815 18.0673C30.1011 17.2345 29.4765 16.4529 28.7999 15.7428C28.4869 15.4143 28.1704 15.097 27.8525 14.7853C20.0934 20.064 9.46489 29.7608 8.49843 38.1624C11.7245 41.6903 16.1397 44.1098 21.11 44.7962C22.9197 41.1949 24.623 33.874 25.6355 29.5199C26.1219 27.4286 26.5418 25.6228 26.8876 24.4527Z" fill="#FFAD00"/>
<path d="M18.09 19.8263C20.7954 17.3346 23.6524 15.1002 26.2655 13.3045C25.4249 12.5618 24.5568 11.8509 23.6631 11.173C21.4926 12.8037 18.6509 14.4099 15.5577 15.0529C14.6915 15.2331 13.8045 15.3978 12.9469 15.5569C9.64273 16.1702 6.47094 16.7641 3.80356 18.2516C3.2841 20.0792 3 22.006 3 24C3 28.4606 4.39584 32.5935 6.76845 35.9945C8.30552 29.9117 13.5777 23.9823 18.09 19.8263ZM28.0754 12.105C30.575 10.5123 32.7299 9.41099 34.1281 8.99386C35.3836 8.61908 36.6153 8.34612 37.7816 8.14705C35.0865 5.80621 31.792 4.13785 28.1551 3.41064C28.2358 4.87727 28.2709 6.48746 27.3882 7.65732C26.9688 8.21286 26.2593 8.97478 25.3361 9.8014C26.2783 10.534 27.1921 11.3024 28.0754 12.105ZM28.9024 25.0472C28.5744 26.158 28.1606 27.9362 27.6818 29.9951C26.2683 36.0742 24.9157 41.5138 23.3361 44.9828C23.5604 44.9899 23.7845 44.9999 24.0105 44.9999C28.9071 44.9999 33.4085 43.3211 36.9808 40.5144C36.8397 34.5465 35.4083 26.1051 31.8026 19.8389C30.4042 20.8777 29.6516 22.5119 28.9024 25.0472Z" fill="#FFAD00"/>
</svg>
